<svg width="26" height="24" viewBox="0 0 26 24" fill="none" xmlns="http://www.w3.org/2000/svg">
<g opacity="0.75">
<path d="M10.4815 16.148L14.037 17.3332C14.037 17.3332 22.9259 15.5554 24.1111 15.5554C25.2963 15.5554 25.2963 16.7406 24.1111 17.9258C22.9259 19.111 18.7778 22.6665 15.2222 22.6665C11.6667 22.6665 9.2963 20.8888 6.92593 20.8888H1" stroke="#0061F2" stroke-width="1.5" stroke-linecap="round" stroke-linejoin="round"/>
<path d="M1 13.7777C2.18519 12.5925 4.55556 10.8147 6.92593 10.8147C9.2963 10.8147 14.9259 13.1851 15.8148 14.3703C16.7037 15.5555 14.037 17.3333 14.037 17.3333M8.11111 7.25918V2.51844C8.11111 2.20411 8.23598 1.90265 8.45824 1.68038C8.68051 1.45812 8.98197 1.33325 9.2963 1.33325H23.5185C23.8328 1.33325 24.1343 1.45812 24.3566 1.68038C24.5788 1.90265 24.7037 2.20411 24.7037 2.51844V11.9999" stroke="#0061F2" stroke-width="1.5" stroke-linecap="round" stroke-linejoin="round"/>
<path d="M13.4453 1.33325H19.3712V6.66659H13.4453V1.33325Z" stroke="#0061F2" stroke-width="1.5" stroke-linecap="round" stroke-linejoin="round"/>
</g>
</svg>
