<svg width="25" height="21" viewBox="0 0 25 21" fill="none" xmlns="http://www.w3.org/2000/svg">
<path d="M23.6992 7.0551C23.7031 8.67081 23.0362 10.2251 21.8384 11.3917C19.0923 14.0493 16.4282 16.8202 13.5808 19.3802C12.9272 19.9577 11.8911 19.9367 11.2667 19.3329L3.05971 11.3927C0.579055 8.99238 0.579055 5.11782 3.05971 2.71853C3.646 2.14417 4.35115 1.68691 5.13242 1.37448C5.91369 1.06205 6.7548 0.900952 7.60476 0.900952C8.45472 0.900952 9.29584 1.06205 10.0771 1.37448C10.8584 1.68691 11.5635 2.14417 12.1498 2.71853L12.4491 3.00623L12.7472 2.71853C13.3342 2.14495 14.0395 1.68815 14.8206 1.37561C15.6016 1.06306 16.4424 0.901251 17.2923 0.899902C19.0023 0.899902 20.6369 1.55511 21.8373 2.71853C23.0354 3.88493 23.7028 5.43924 23.6992 7.0551Z" stroke="black" stroke-width="1.5" stroke-linejoin="round"/>
</svg>
