<svg width="36" height="37" viewBox="0 0 36 37" fill="none" xmlns="http://www.w3.org/2000/svg">
<path d="M21.75 17.75C19.125 20.573 16.5 27.5 16.5 27.5C16.5 27.5 12.75 17.75 9 15.5" stroke="black" stroke-width="1.5" stroke-linecap="round" stroke-linejoin="round"/>
<path d="M27.0258 12.095L27.4698 16.715C27.7578 19.712 25.5108 22.3805 22.5138 22.67C19.5738 22.952 16.9098 20.8025 16.6263 17.8625C16.5588 17.1632 16.6298 16.4575 16.8351 15.7856C17.0404 15.1137 17.3761 14.4889 17.823 13.9468C18.2698 13.4046 18.8191 12.9558 19.4394 12.626C20.0597 12.2962 20.739 12.0918 21.4383 12.0245L26.3643 11.5505C26.5239 11.5355 26.6831 11.5843 26.8068 11.6864C26.9305 11.7885 27.0087 11.9354 27.0243 12.095" stroke="black" stroke-width="1.5" stroke-linecap="round" stroke-linejoin="round"/>
<path d="M18 33.5C26.2845 33.5 33 26.7845 33 18.5C33 10.2155 26.2845 3.5 18 3.5C9.7155 3.5 3 10.2155 3 18.5C3 26.7845 9.7155 33.5 18 33.5Z" stroke="black" stroke-width="1.5" stroke-linecap="round" stroke-linejoin="round"/>
</svg>
