<svg width="40" height="40" viewBox="0 0 40 40" fill="none" xmlns="http://www.w3.org/2000/svg">
<rect width="40" height="40" rx="20" fill="#F3DDDD"/>
<path d="M33 17.8391C33.0043 19.6343 32.2633 21.3613 30.9325 22.6575C27.8812 25.6104 24.9211 28.6893 21.7573 31.5336C21.0311 32.1753 19.8798 32.152 19.1861 31.4811L10.0672 22.6587C7.31093 19.9916 7.31093 15.6866 10.0672 13.0207C10.7186 12.3825 11.5021 11.8745 12.3702 11.5273C13.2383 11.1802 14.1729 11.0012 15.1173 11.0012C16.0617 11.0012 16.9962 11.1802 17.8643 11.5273C18.7324 11.8745 19.5159 12.3825 20.1673 13.0207L20.4998 13.3404L20.8311 13.0207C21.4833 12.3834 22.2669 11.8758 23.1348 11.5286C24.0027 11.1813 24.9369 11.0015 25.8811 11C27.7812 11 29.5974 11.728 30.9312 13.0207C32.2625 14.3167 33.004 16.0437 33 17.8391Z" stroke="black" stroke-width="1.5" stroke-linejoin="round"/>
</svg>
