<svg width="18" height="22" viewBox="0 0 18 22" fill="none" xmlns="http://www.w3.org/2000/svg">
<path d="M15 17C16.245 17.424 17 17.982 17 18.593C17 19.923 13.418 21 9 21C4.582 21 1 19.922 1 18.593C1 17.982 1.755 17.424 3 17M12 8.5C12 9.29565 11.6839 10.0587 11.1213 10.6213C10.5587 11.1839 9.79565 11.5 9 11.5C8.20435 11.5 7.44129 11.1839 6.87868 10.6213C6.31607 10.0587 6 9.29565 6 8.5C6 7.70435 6.31607 6.94129 6.87868 6.37868C7.44129 5.81607 8.20435 5.5 9 5.5C9.79565 5.5 10.5587 5.81607 11.1213 6.37868C11.6839 6.94129 12 7.70435 12 8.5Z" stroke="black" stroke-width="1.5" stroke-linecap="round" stroke-linejoin="round"/>
<path d="M9 1C13.059 1 16.5 4.428 16.5 8.587C16.5 12.812 13.003 15.777 9.773 17.793C9.53785 17.9283 9.2713 17.9995 9 17.9995C8.7287 17.9995 8.46215 17.9283 8.227 17.793C5.003 15.757 1.5 12.827 1.5 8.587C1.5 4.428 4.941 1 9 1Z" stroke="black" stroke-width="1.5" stroke-linecap="round" stroke-linejoin="round"/>
</svg>
