<svg width="36" height="36" viewBox="0 0 36 36" fill="none" xmlns="http://www.w3.org/2000/svg">
<path d="M25.5 33C24.25 33 23.1875 32.5625 22.3125 31.6875C21.4375 30.8125 21 29.75 21 28.5C21 28.35 21.0375 28 21.1125 27.45L10.575 21.3C10.175 21.675 9.7125 21.969 9.1875 22.182C8.6625 22.395 8.1 22.501 7.5 22.5C6.25 22.5 5.1875 22.0625 4.3125 21.1875C3.4375 20.3125 3 19.25 3 18C3 16.75 3.4375 15.6875 4.3125 14.8125C5.1875 13.9375 6.25 13.5 7.5 13.5C8.1 13.5 8.6625 13.6065 9.1875 13.8195C9.7125 14.0325 10.175 14.326 10.575 14.7L21.1125 8.55C21.0625 8.375 21.0315 8.2065 21.0195 8.0445C21.0075 7.8825 21.001 7.701 21 7.5C21 6.25 21.4375 5.1875 22.3125 4.3125C23.1875 3.4375 24.25 3 25.5 3C26.75 3 27.8125 3.4375 28.6875 4.3125C29.5625 5.1875 30 6.25 30 7.5C30 8.75 29.5625 9.8125 28.6875 10.6875C27.8125 11.5625 26.75 12 25.5 12C24.9 12 24.3375 11.8935 23.8125 11.6805C23.2875 11.4675 22.825 11.174 22.425 10.8L11.8875 16.95C11.9375 17.125 11.969 17.294 11.982 17.457C11.995 17.62 12.001 17.801 12 18C11.999 18.199 11.993 18.3805 11.982 18.5445C11.971 18.7085 11.9395 18.877 11.8875 19.05L22.425 25.2C22.825 24.825 23.2875 24.5315 23.8125 24.3195C24.3375 24.1075 24.9 24.001 25.5 24C26.75 24 27.8125 24.4375 28.6875 25.3125C29.5625 26.1875 30 27.25 30 28.5C30 29.75 29.5625 30.8125 28.6875 31.6875C27.8125 32.5625 26.75 33 25.5 33Z" fill="black"/>
</svg>
