<svg width="44" height="44" viewBox="0 0 44 44" fill="none" xmlns="http://www.w3.org/2000/svg">
<path d="M11 19.9908C11 19.1733 11 18.7646 11.1522 18.397C11.3045 18.0295 11.5935 17.7405 12.1716 17.1624L15.3284 14.0056C15.9065 13.4275 16.1955 13.1385 16.5631 12.9862C16.9306 12.834 17.3394 12.834 18.1569 12.834H25.8431C26.6606 12.834 27.0694 12.834 27.4369 12.9862C27.8045 13.1385 28.0935 13.4275 28.6716 14.0056L31.8284 17.1624C32.4065 17.7405 32.6955 18.0295 32.8478 18.397C33 18.7646 33 19.1733 33 19.9908V32.6673C33 34.5529 33 35.4957 32.4142 36.0815C31.8284 36.6673 30.8856 36.6673 29 36.6673H15C13.1144 36.6673 12.1716 36.6673 11.5858 36.0815C11 35.4957 11 34.5529 11 32.6673V19.9908Z" stroke="#33363F" stroke-width="2"/>
<path d="M16.5 12.8327L11.1387 9.25847C11.0547 9.20248 10.9453 9.20248 10.8613 9.25847L5.75373 12.6635C5.62247 12.751 5.60408 12.9368 5.71563 13.0483L10.6203 17.953C10.8634 18.1961 11 18.5258 11 18.8697V18.8697C11 19.5856 11.5804 20.166 12.2964 20.166H31.7036C32.4196 20.166 33 19.5856 33 18.8697V18.8697C33 18.5258 33.1366 18.1961 33.3797 17.953L38.2844 13.0483C38.3959 12.9368 38.3775 12.751 38.2463 12.6635L33.1387 9.25847C33.0547 9.20248 32.9453 9.20248 32.8613 9.25847L27.5 12.8327" stroke="#33363F" stroke-width="2" stroke-linecap="round"/>
<line x1="2.53556" y1="6.22964" x2="38.8356" y2="39.2296" stroke="black"/>
</svg>
