<svg width="24" height="20" viewBox="0 0 24 20" fill="none" xmlns="http://www.w3.org/2000/svg">
<mask id="mask0_307_2047" style="mask-type:luminance" maskUnits="userSpaceOnUse" x="0" y="0" width="24" height="20">
<path d="M17.9916 5.74994C17.7286 5.50949 17.4421 5.29593 17.1366 5.11244L16.4036 4.67244C15.7238 4.26523 14.9768 3.98279 14.1976 3.83844L13.9356 3.79044C12.5268 3.53041 11.168 3.04859 9.91012 2.36294C9.85338 2.11147 9.72813 1.88062 9.54823 1.69598C9.36833 1.51134 9.14082 1.38011 8.89091 1.31685C8.641 1.25359 8.37846 1.26077 8.13238 1.33758C7.8863 1.4144 7.6663 1.55785 7.49675 1.75204C7.32721 1.94623 7.21474 2.18357 7.17183 2.43777C7.12891 2.69196 7.15722 2.95307 7.25361 3.19216C7.35 3.43125 7.51071 3.63898 7.71794 3.79233C7.92516 3.94567 8.17079 4.03865 8.42762 4.06094C9.25544 4.87104 9.95497 5.80257 10.5021 6.82344" stroke="white" stroke-width="2" stroke-linecap="round" stroke-linejoin="round"/>
<path d="M5.6535 10.5099C5.5225 10.6499 4 12.3249 4 13.9999C4 15.7499 4.779 16.4999 5.5 16.9999C6.221 17.4999 7.36 17.9999 8.305 17.9999C9.25 17.9999 14.25 18.4999 16.5 17.9999C18.75 17.4999 19 16.9999 20 15.9999C20.5405 15.4594 20.941 14.6989 21.195 14.1149C21.4385 13.5483 21.635 12.9627 21.7825 12.3639C21.9625 11.6459 22.144 10.6149 22 9.74987C21.75 8.24987 21 7.24987 18.5 5.99987C16.198 4.84887 14.1765 5.39387 13.871 5.48737L13.7905 5.51437C13.3905 5.65587 10.158 6.81237 8.7855 7.74987C7.3845 8.70687 5.8045 10.3509 5.6715 10.4904L5.6535 10.5099Z" stroke="white" stroke-width="2" stroke-linecap="round" stroke-linejoin="round"/>
<path d="M3.05262 8.00503C2.79579 7.98274 2.55016 7.88977 2.34294 7.73642C2.13571 7.58307 1.975 7.37534 1.87861 7.13625C1.78222 6.89716 1.75391 6.63605 1.79683 6.38186C1.83974 6.12767 1.95221 5.89032 2.12175 5.69613C2.2913 5.50194 2.5113 5.35849 2.75738 5.28167C3.00346 5.20486 3.266 5.19769 3.51591 5.26095C3.76582 5.32421 3.99333 5.45543 4.17323 5.64007C4.35313 5.82471 4.47838 6.05556 4.53512 6.30703C5.79308 6.99251 7.15178 7.47416 8.56062 7.73403L8.82262 7.78253C9.60212 7.92603 10.3491 8.20853 11.0286 8.61653L11.7616 9.05603C12.2511 9.3504 12.6904 9.72126 13.0626 10.1545L13.2656 10.3905C13.5681 10.7432 13.7927 11.1558 13.9247 11.6012C14.0567 12.0467 14.0931 12.515 14.0316 12.9755L14.0176 13.081C13.933 13.7157 13.646 14.3061 13.1991 14.7645L12.9681 15.001C12.5925 15.3865 12.1291 15.6754 11.6175 15.8429C11.106 16.0104 10.5615 16.0516 10.0306 15.963C9.19719 15.8241 8.42562 15.4353 7.81812 14.848L7.44862 14.491C7.15144 14.204 6.89383 13.8786 6.68262 13.5235L5.59662 11.6975L5.27962 11.0625C4.71277 9.92628 3.96008 8.89322 3.05262 8.00503Z" fill="#555555" stroke="white" stroke-width="2" stroke-linecap="round" stroke-linejoin="round"/>
</mask>
<g mask="url(#mask0_307_2047)">
<path d="M0 -2H24V22H0V-2Z" fill="black" fill-opacity="0.6"/>
</g>
</svg>
