<svg width="74" height="74" viewBox="0 0 74 74" fill="none" xmlns="http://www.w3.org/2000/svg">
<path d="M34.2006 1.7428C35.7558 0.219016 38.2442 0.219017 39.7994 1.7428L43.4539 5.32341C44.4538 6.30314 45.8932 6.68882 47.2491 6.34032L52.2043 5.06667C54.313 4.52465 56.468 5.76882 57.0529 7.86607L58.4275 12.7942C58.8036 14.1427 59.8573 15.1964 61.2058 15.5725L66.1339 16.9471C68.2312 17.532 69.4753 19.687 68.9333 21.7957L67.6597 26.7509C67.3112 28.1068 67.6969 29.5462 68.6766 30.5461L72.2572 34.2006C73.781 35.7558 73.781 38.2442 72.2572 39.7994L68.6766 43.4539C67.6969 44.4538 67.3112 45.8932 67.6597 47.2491L68.9333 52.2043C69.4753 54.313 68.2312 56.468 66.1339 57.0529L61.2058 58.4275C59.8573 58.8036 58.8036 59.8573 58.4275 61.2058L57.0529 66.1339C56.468 68.2312 54.313 69.4753 52.2043 68.9333L47.2491 67.6597C45.8932 67.3112 44.4538 67.6969 43.4539 68.6766L39.7994 72.2572C38.2442 73.781 35.7558 73.781 34.2006 72.2572L30.5461 68.6766C29.5462 67.6969 28.1068 67.3112 26.7509 67.6597L21.7957 68.9333C19.687 69.4753 17.532 68.2312 16.9471 66.1339L15.5725 61.2058C15.1964 59.8573 14.1427 58.8036 12.7942 58.4275L7.86607 57.0529C5.76882 56.468 4.52465 54.313 5.06667 52.2043L6.34032 47.2491C6.68882 45.8932 6.30314 44.4538 5.32341 43.4539L1.7428 39.7994C0.219016 38.2442 0.219017 35.7558 1.7428 34.2006L5.32341 30.5461C6.30314 29.5462 6.68882 28.1068 6.34032 26.7509L5.06667 21.7957C4.52465 19.687 5.76882 17.532 7.86607 16.9471L12.7942 15.5725C14.1427 15.1964 15.1964 14.1427 15.5725 12.7942L16.9471 7.86607C17.532 5.76882 19.687 4.52465 21.7957 5.06667L26.7509 6.34032C28.1068 6.68882 29.5462 6.30314 30.5461 5.32341L34.2006 1.7428Z" fill="black"/>
</svg>
