<svg width="18" height="18" viewBox="0 0 18 18" fill="none" xmlns="http://www.w3.org/2000/svg">
<path opacity="0.75" d="M16.5357 1.4713C16.3876 1.32153 16.2112 1.20272 16.0168 1.12179C15.8224 1.04085 15.6138 0.999412 15.4032 0.999882H11.0129C10.7249 1.00042 10.4487 1.1145 10.2443 1.31738L1.46767 10.0923C1.16819 10.3924 1 10.799 1 11.223C1 11.6469 1.16819 12.0536 1.46767 12.3537L5.64619 16.5322C5.94636 16.8318 6.35314 17.0001 6.77725 17.0001C7.20135 17.0001 7.60813 16.8318 7.9083 16.5322L16.6814 7.76087C16.8847 7.55679 16.9992 7.28071 17 6.99266V2.59986C17.0013 2.39036 16.9609 2.1827 16.8812 1.98895C16.8015 1.7952 16.684 1.61924 16.5357 1.4713ZM13.5714 5.57125C13.3454 5.57125 13.1245 5.50422 12.9365 5.37865C12.7486 5.25307 12.6021 5.07458 12.5156 4.86576C12.4291 4.65693 12.4065 4.42714 12.4506 4.20545C12.4947 3.98376 12.6035 3.78013 12.7633 3.6203C12.9232 3.46047 13.1268 3.35162 13.3485 3.30753C13.5702 3.26343 13.8 3.28606 14.0088 3.37256C14.2176 3.45906 14.3961 3.60554 14.5217 3.79348C14.6473 3.98142 14.7143 4.20238 14.7143 4.42841C14.7143 4.73151 14.5939 5.0222 14.3796 5.23652C14.1652 5.45084 13.8745 5.57125 13.5714 5.57125Z" stroke="#FF7F32" stroke-width="1.5"/>
</svg>
