<svg width="18" height="16" viewBox="0 0 18 16" fill="none" xmlns="http://www.w3.org/2000/svg">
<g opacity="0.75">
<path d="M7.32099 10.7654L9.69136 11.5555C9.69136 11.5555 15.6173 10.3704 16.4074 10.3704C17.1975 10.3704 17.1975 11.1605 16.4074 11.9506C15.6173 12.7407 12.8519 15.1111 10.4815 15.1111C8.11111 15.1111 6.53086 13.9259 4.95062 13.9259H1" stroke="#FF7F32" stroke-width="1.5" stroke-linecap="round" stroke-linejoin="round"/>
<path d="M1 9.18521C1.79012 8.39509 3.37037 7.2099 4.95062 7.2099C6.53086 7.2099 10.2839 8.79015 10.8765 9.58027C11.4691 10.3704 9.69136 11.5556 9.69136 11.5556M5.74074 4.83953V1.67904C5.74074 1.46949 5.82399 1.26851 5.97216 1.12034C6.12034 0.972161 6.32131 0.888916 6.53086 0.888916H16.0123C16.2219 0.888916 16.4229 0.972161 16.571 1.12034C16.7192 1.26851 16.8025 1.46949 16.8025 1.67904V8.00003" stroke="#FF7F32" stroke-width="1.5" stroke-linecap="round" stroke-linejoin="round"/>
<path d="M9.29688 0.888916H13.2475V4.44447H9.29688V0.888916Z" stroke="#FF7F32" stroke-width="1.5" stroke-linecap="round" stroke-linejoin="round"/>
</g>
</svg>
