<svg width="30" height="26" viewBox="0 0 30 26" fill="none" xmlns="http://www.w3.org/2000/svg">
<path d="M28.3343 8.816C28.3389 10.8677 27.5485 12.8413 26.129 14.3227C22.8743 17.6973 19.717 21.216 16.3423 24.4667C15.5676 25.2 14.3396 25.1733 13.5996 24.4067L3.87297 14.324C0.932969 11.276 0.932969 6.356 3.87297 3.30933C4.56782 2.58 5.40355 1.99936 6.32949 1.60263C7.25543 1.2059 8.25228 1.00133 9.25963 1.00133C10.267 1.00133 11.2638 1.2059 12.1898 1.60263C13.1157 1.99936 13.9514 2.58 14.6463 3.30933L15.001 3.67467L15.3543 3.30933C16.05 2.58099 16.8859 2.00093 17.8116 1.60406C18.7373 1.20719 19.7338 1.00171 20.741 1C22.7676 1 24.705 1.832 26.1276 3.30933C27.5476 4.79046 28.3385 6.76415 28.3343 8.816Z" stroke="black" stroke-width="1.5" stroke-linejoin="round"/>
</svg>
