<svg width="26" height="26" viewBox="0 0 26 26" fill="none" xmlns="http://www.w3.org/2000/svg">
<path opacity="0.75" d="M24.3035 1.7069C24.0814 1.48224 23.8169 1.30402 23.5252 1.18262C23.2336 1.06122 22.9207 0.999057 22.6048 0.999762H16.0194C15.5874 1.00057 15.1731 1.17169 14.8665 1.47601L1.70151 14.6383C1.25229 15.0885 1 15.6984 1 16.3344C1 16.9703 1.25229 17.5803 1.70151 18.0304L7.96928 24.2982C8.41954 24.7476 9.02971 25 9.66587 25C10.302 25 10.9122 24.7476 11.3625 24.2982L24.5221 11.1412C24.827 10.8351 24.9988 10.421 25 9.98893V3.39973C25.0019 3.08548 24.9413 2.77398 24.8218 2.48336C24.7022 2.19274 24.5261 1.9288 24.3035 1.7069ZM19.8572 7.85682C19.5181 7.85682 19.1867 7.75628 18.9048 7.56791C18.6229 7.37954 18.4031 7.11181 18.2734 6.79857C18.1436 6.48533 18.1097 6.14065 18.1758 5.80812C18.242 5.47558 18.4053 5.17013 18.645 4.93038C18.8847 4.69064 19.1902 4.52737 19.5227 4.46123C19.8553 4.39508 20.1999 4.42903 20.5132 4.55878C20.8264 4.68853 21.0942 4.90825 21.2825 5.19016C21.4709 5.47207 21.5714 5.8035 21.5714 6.14255C21.5714 6.5972 21.3908 7.03323 21.0693 7.35472C20.7478 7.67621 20.3118 7.85682 19.8572 7.85682Z" stroke="#0061F2" stroke-width="1.5"/>
</svg>
