<svg width="22" height="22" viewBox="0 0 22 22" fill="none" xmlns="http://www.w3.org/2000/svg">
<path d="M13.5 10.5C11.75 12.382 10 17 10 17C10 17 7.5 10.5 5 9" stroke="black" stroke-opacity="0.6" stroke-width="1.5" stroke-linecap="round" stroke-linejoin="round"/>
<path d="M17.0159 6.73002L17.3119 9.81002C17.5039 11.808 16.0059 13.587 14.0079 13.78C12.0479 13.968 10.2719 12.535 10.0829 10.575C10.0379 10.1088 10.0852 9.63832 10.2221 9.1904C10.359 8.74249 10.5828 8.32592 10.8807 7.9645C11.1786 7.60309 11.5448 7.30389 11.9583 7.08401C12.3719 6.86413 12.8247 6.72787 13.2909 6.68302L16.5749 6.36702C16.6813 6.35699 16.7874 6.38956 16.8699 6.4576C16.9524 6.52564 17.0045 6.6236 17.0149 6.73002" stroke="black" stroke-opacity="0.6" stroke-width="1.5" stroke-linecap="round" stroke-linejoin="round"/>
<path d="M11 21C16.523 21 21 16.523 21 11C21 5.477 16.523 1 11 1C5.477 1 1 5.477 1 11C1 16.523 5.477 21 11 21Z" stroke="black" stroke-opacity="0.6" stroke-width="1.5" stroke-linecap="round" stroke-linejoin="round"/>
</svg>
