<svg width="30" height="24" viewBox="0 0 30 24" fill="none" xmlns="http://www.w3.org/2000/svg">
<path d="M20.5041 14.0602C20.1972 13.9289 18.6684 13.3055 18.3841 13.2211C18.0997 13.132 17.8914 13.0898 17.6858 13.3523C17.4775 13.6125 16.8863 14.1914 16.7005 14.3672C16.5203 14.5406 16.3373 14.5617 16.0304 14.4328C14.206 13.6734 13.0095 13.0781 11.8073 11.3602C11.4891 10.9031 12.1254 10.9359 12.7195 9.94922C12.8208 9.77578 12.7702 9.62813 12.6913 9.49688C12.6125 9.36563 11.9931 8.09531 11.7341 7.57734C11.4835 7.07344 11.2245 7.14375 11.0359 7.13437C10.8557 7.125 10.6502 7.125 10.4418 7.125C10.2335 7.125 9.89844 7.19063 9.61409 7.44609C9.32973 7.70625 8.52734 8.33203 8.52734 9.60234C8.52734 10.8727 9.63943 12.1031 9.79146 12.2766C9.94912 12.45 11.979 15.0563 15.0957 16.1789C17.0665 16.8867 17.8379 16.9477 18.8233 16.8258C19.4229 16.7508 20.6589 16.2023 20.9151 15.5953C21.1713 14.9906 21.1713 14.4727 21.0953 14.3648C21.0193 14.25 20.8109 14.1844 20.5041 14.0602Z" fill="white"/>
<path d="M26.4652 7.93125C25.8289 6.67266 24.9167 5.54297 23.7539 4.57266C22.5912 3.60469 21.2341 2.84297 19.7194 2.31563C18.171 1.77422 16.5268 1.5 14.8319 1.5H14.7756C13.0695 1.50703 11.4168 1.78828 9.86273 2.34141C8.36212 2.87578 7.01636 3.63516 5.86486 4.60312C4.71336 5.57109 3.80961 6.69609 3.18459 7.95C2.53705 9.24844 2.21046 10.6289 2.21891 12.0492C2.22736 13.6758 2.69471 15.2906 3.5703 16.7344V20.2969C3.5703 20.8922 4.15028 21.375 4.86539 21.375H9.14761C10.8819 22.1039 12.8217 22.493 14.7756 22.5H14.8347C16.5212 22.5 18.1569 22.2281 19.6969 21.6961C21.2032 21.1734 22.5574 20.4234 23.7173 19.4648C24.8801 18.5063 25.7951 17.3859 26.4342 16.1367C27.0986 14.843 27.4365 13.4672 27.4449 12.0469C27.4534 10.6195 27.1211 9.23438 26.4652 7.93125ZM22.2111 18.1969C20.2375 19.8234 17.6192 20.7188 14.8319 20.7188H14.784C13.0864 20.7117 11.3999 20.3602 9.91059 19.6992L9.67409 19.5938H5.71001V16.2938L5.58332 16.0969C4.78937 14.857 4.36706 13.4531 4.35862 12.0398C4.34735 9.70312 5.42002 7.50937 7.38799 5.85703C9.35314 4.20469 11.9799 3.29062 14.7869 3.28125H14.8347C16.2424 3.28125 17.6079 3.50859 18.8945 3.95859C20.1502 4.39687 21.2764 5.02734 22.2449 5.83359C23.2105 6.6375 23.9707 7.57734 24.4972 8.62266C25.0434 9.70547 25.3165 10.8539 25.3108 12.0398C25.2939 14.3742 24.1931 16.5609 22.2111 18.1969Z" fill="white"/>
</svg>
